# Blender v2.79 (sub 0) OBJ File: 'AmorphousBlob.blend'
# www.blender.org
o Sphere
v 0.112468 0.480970 -0.154799
v 0.207813 0.406733 -0.286031
v 0.264798 0.281415 -0.364463
v 0.293893 0.135895 -0.404509
v 0.181977 0.480970 -0.059128
v 0.336249 0.406733 -0.109254
v 0.428452 0.281415 -0.139213
v 0.181977 0.480970 0.059128
v 0.336249 0.406733 0.109254
v 0.428452 0.281415 0.139212
v 0.112468 0.480970 0.154799
v 0.207813 0.406733 0.286031
v 0.264798 0.281415 0.364463
v 0.293893 0.135895 0.404508
v 0.240209 -0.000000 -0.330619
v 0.278169 0.036978 -0.382867
v 0.475528 0.135895 -0.154509
v 0.388666 -0.000000 -0.126285
v 0.450087 0.036978 -0.146242
v 0.475528 0.135895 0.154508
v 0.388666 -0.000000 0.126285
v 0.450087 0.036978 0.146242
v 0.240209 -0.000000 0.330619
v 0.278169 0.036978 0.382867
v 0.193696 0.135895 0.437064
v 0.129248 0.204091 0.434807
v 0.138193 0.087710 0.442067
v 0.065799 0.168710 0.376561
v 0.111443 0.185559 0.397568
v 0.074416 0.111490 0.379906
v 0.119041 0.095046 0.396941
v 0.166187 0.135976 0.385899
v 0.100527 0.135660 0.359367
v 0.100000 0.438388 0.464645
v 0.100000 0.350000 0.450000
v 0.100000 0.261612 0.464645
v 0.130618 0.438388 0.482322
v 0.143301 0.350000 0.475000
v 0.130618 0.261612 0.482322
v 0.130618 0.438388 0.517678
v 0.143301 0.350000 0.525000
v 0.130618 0.261612 0.517678
v 0.100000 0.438388 0.535355
v 0.100000 0.350000 0.550000
v 0.100000 0.261612 0.535355
v 0.100000 0.225000 0.500000
v 0.100000 0.475000 0.500000
v 0.069381 0.438388 0.517678
v 0.056699 0.350000 0.525000
v 0.069381 0.261612 0.517678
v 0.069381 0.438388 0.482322
v 0.056699 0.350000 0.475000
v 0.069381 0.261612 0.482322
v 0.000000 0.500000 -0.000000
v -0.112468 0.480970 -0.154799
v -0.207813 0.406733 -0.286031
v -0.264798 0.281415 -0.364463
v -0.293893 0.135895 -0.404509
v -0.181977 0.480970 -0.059128
v -0.336249 0.406733 -0.109254
v -0.428452 0.281415 -0.139213
v -0.181977 0.480970 0.059128
v -0.336249 0.406733 0.109254
v -0.428452 0.281415 0.139212
v -0.112468 0.480970 0.154799
v -0.207813 0.406733 0.286031
v -0.264798 0.281415 0.364463
v -0.293893 0.135895 0.404508
v 0.000000 0.480970 0.191342
v 0.000000 0.406733 0.353553
v 0.000000 0.281415 0.450501
v 0.000000 0.480970 -0.191342
v 0.000000 0.406733 -0.353553
v 0.000000 0.281415 -0.450501
v 0.000000 -0.000000 -0.000000
v -0.240209 -0.000000 -0.330619
v -0.278169 0.036978 -0.382867
v -0.475528 0.135895 -0.154509
v -0.388666 -0.000000 -0.126285
v -0.450087 0.036978 -0.146242
v -0.475528 0.135895 0.154508
v -0.388666 -0.000000 0.126285
v -0.450087 0.036978 0.146242
v -0.240209 -0.000000 0.330619
v -0.278169 0.036978 0.382867
v 0.000000 -0.000000 0.408668
v 0.000000 0.036978 0.473249
v 0.000000 0.135895 -0.500000
v 0.000000 -0.000000 -0.408668
v 0.000000 0.036978 -0.473249
v 0.000000 0.223538 0.470188
v -0.193696 0.135895 0.437064
v 0.000000 0.076545 0.483950
v -0.129248 0.204091 0.434807
v 0.000000 0.134934 0.351061
v -0.138193 0.087710 0.442067
v -0.065799 0.168710 0.376561
v -0.111443 0.185559 0.397568
v -0.074416 0.111490 0.379906
v -0.119041 0.095046 0.396941
v 0.000000 0.085627 0.432150
v 0.000000 0.105693 0.379352
v -0.166187 0.135976 0.385899
v -0.100527 0.135660 0.359367
v 0.000000 0.181806 0.374103
v 0.000000 0.210331 0.420480
v -0.100000 0.438388 0.464645
v -0.100000 0.350000 0.450000
v -0.100000 0.261612 0.464645
v -0.130618 0.438388 0.482322
v -0.143301 0.350000 0.475000
v -0.130618 0.261612 0.482322
v -0.130618 0.438388 0.517678
v -0.143301 0.350000 0.525000
v -0.130618 0.261612 0.517678
v -0.100000 0.438388 0.535355
v -0.100000 0.350000 0.550000
v -0.100000 0.261612 0.535355
v -0.100000 0.225000 0.500000
v -0.100000 0.475000 0.500000
v -0.069381 0.438388 0.517678
v -0.056699 0.350000 0.525000
v -0.069381 0.261612 0.517678
v -0.069381 0.438388 0.482322
v -0.056699 0.350000 0.475000
v -0.069381 0.261612 0.482322
vt 0.694587 0.766222
vt 0.694463 0.721241
vt 0.749578 0.703143
vt 0.773303 0.741056
vt 0.694365 0.673931
vt 0.694295 0.622256
vt 0.723937 0.664450
vt 0.694759 0.817370
vt 0.800456 0.785505
vt 0.786551 0.658740
vt 0.827002 0.679218
vt 0.743346 0.639982
vt 0.872497 0.704181
vt 0.843514 0.595244
vt 0.897780 0.596171
vt 0.745828 0.607759
vt 0.794862 0.598827
vt 0.728106 0.578544
vt 0.766485 0.537715
vt 0.815642 0.498932
vt 0.874954 0.470060
vt 0.694337 0.507540
vt 0.694553 0.423148
vt 0.694270 0.567136
vt 0.325947 0.200755
vt 0.297903 0.236814
vt 0.235478 0.246895
vt 0.236070 0.199113
vt 0.532557 0.216415
vt 0.563381 0.121548
vt 0.693955 0.216415
vt 0.824528 0.311282
vt 0.743829 0.369913
vt 0.563381 0.311282
vt 0.644080 0.369913
vt 0.946786 0.745055
vt 0.847368 0.859941
vt 0.825592 0.823381
vt 0.911907 0.724310
vt 0.981999 0.602050
vt 0.942481 0.597522
vt 0.923855 0.458242
vt 0.965786 0.456148
vt 0.385493 0.297207
vt 0.234004 0.365842
vt 0.234760 0.304886
vt 0.346688 0.256675
vt 0.913436 0.277001
vt 0.961259 0.288929
vt 0.238053 0.039029
vt 0.395536 0.114356
vt 0.351123 0.154919
vt 0.237290 0.100610
vt 0.236535 0.161577
vt 0.306146 0.169805
vt 0.694925 0.866060
vt 0.695113 0.914238
vt 0.851616 0.408474
vt 0.883659 0.368161
vt 0.448730 0.196605
vt 0.385164 0.199680
vt 0.783199 0.411862
vt 0.694699 0.387540
vt 0.887336 0.275932
vt 0.226525 0.616313
vt 0.347897 0.632737
vt 0.304789 0.682042
vt 0.438701 0.790781
vt 0.355862 0.968431
vt 0.303074 0.913398
vt 0.342432 0.796160
vt 0.224043 0.981063
vt 0.264930 0.702960
vt 0.260785 0.893338
vt 0.278013 0.797898
vt 0.227615 0.709124
vt 0.222953 0.888252
vt 0.225284 0.798688
vt 0.189783 0.704037
vt 0.185638 0.894416
vt 0.172555 0.799477
vt 0.147495 0.683977
vt 0.145779 0.915334
vt 0.108137 0.801215
vt 0.102671 0.964639
vt 0.094707 0.628945
vt 0.011868 0.806594
vt 0.615646 0.741467
vt 0.639229 0.703375
vt 0.664754 0.664539
vt 0.588692 0.786172
vt 0.561498 0.679715
vt 0.602006 0.659024
vt 0.645254 0.640102
vt 0.515926 0.704989
vt 0.490049 0.596488
vt 0.544642 0.595425
vt 0.593513 0.598946
vt 0.642694 0.607838
vt 0.621956 0.537598
vt 0.660400 0.578559
vt 0.572662 0.498529
vt 0.512933 0.469351
vt 0.146179 0.198528
vt 0.173322 0.235271
vt 0.644080 0.062917
vt 0.855352 0.216415
vt 0.743829 0.062917
vt 0.824528 0.121548
vt 0.441524 0.746505
vt 0.476448 0.725434
vt 0.563753 0.824306
vt 0.542195 0.861122
vt 0.405233 0.602771
vt 0.445037 0.598022
vt 0.463486 0.457458
vt 0.421002 0.455445
vt 0.084263 0.293476
vt 0.124060 0.253917
vt 0.425079 0.285358
vt 0.473681 0.273076
vt 0.122147 0.152083
vt 0.078752 0.110432
vt 0.166741 0.168078
vt 0.504276 0.365941
vt 0.536775 0.407132
vt 0.087008 0.195986
vt 0.023537 0.191338
vt 0.605742 0.411100
vt 0.500237 0.271774
vt 0.226525 0.616313
vt 0.147495 0.683977
vt 0.094707 0.628945
vt 0.011868 0.806594
vt 0.108137 0.801215
vt 0.145779 0.915334
vt 0.102671 0.964639
vt 0.224043 0.981063
vt 0.189783 0.704037
vt 0.172555 0.799477
vt 0.185638 0.894416
vt 0.227615 0.709124
vt 0.225284 0.798688
vt 0.222953 0.888252
vt 0.264930 0.702960
vt 0.278013 0.797898
vt 0.260785 0.893338
vt 0.304789 0.682042
vt 0.342432 0.796160
vt 0.303074 0.913398
vt 0.355862 0.968431
vt 0.347897 0.632737
vt 0.438701 0.790781
vn 0.0000 0.4603 -0.8877
vn 0.0000 0.7607 -0.6491
vn 0.3815 0.7607 -0.5251
vn 0.5218 0.4603 -0.7182
vn 0.0000 0.9567 -0.2911
vn 0.0000 1.0000 0.0000
vn 0.1711 0.9567 -0.2355
vn 0.0000 0.0302 -0.9995
vn 0.5875 0.0302 -0.8086
vn 0.6173 0.7607 -0.2006
vn 0.8443 0.4603 -0.2743
vn 0.2769 0.9567 -0.0900
vn 0.9506 0.0302 -0.3088
vn 0.8443 0.4603 0.2743
vn 0.9506 0.0302 0.3088
vn 0.2769 0.9567 0.0900
vn 0.6173 0.7607 0.2006
vn 0.1711 0.9567 0.2355
vn 0.3815 0.7607 0.5251
vn 0.5218 0.4603 0.7182
vn 0.5875 0.0302 0.8086
vn 0.0000 0.7607 0.6491
vn 0.0000 0.4603 0.8877
vn 0.0000 0.9567 0.2911
vn -0.2302 0.0590 0.9713
vn -0.1319 -0.6317 0.7639
vn 0.0000 -0.6654 0.7465
vn 0.0000 0.1286 0.9917
vn 0.1785 -0.9528 0.2457
vn 0.0000 -0.9528 0.3037
vn 0.0000 -1.0000 0.0000
vn 0.0000 -0.9528 -0.3037
vn 0.1785 -0.9528 -0.2457
vn 0.2888 -0.9528 0.0938
vn 0.2888 -0.9528 -0.0938
vn 0.4801 -0.5769 -0.6608
vn 0.7768 -0.5769 -0.2524
vn 0.7768 -0.5769 0.2524
vn 0.4801 -0.5769 0.6608
vn 0.0117 -0.2464 0.9691
vn 0.0000 -0.3370 0.9415
vn 0.0000 -0.8854 0.4647
vn -0.2993 -0.7555 0.5827
vn 0.0000 -0.5769 0.8168
vn 0.0000 0.4581 0.8889
vn 0.0215 0.3759 0.9264
vn -0.2450 0.8415 0.4815
vn 0.0000 0.8037 0.5950
vn -0.0656 0.7705 0.6340
vn 0.0000 -0.5769 -0.8168
vn -0.0188 0.0461 0.9987
vn -0.6711 0.0481 0.7398
vn 0.0000 -0.4151 -0.9098
vn 0.7879 -0.4151 -0.4549
vn 0.0000 0.0000 -1.0000
vn 0.0000 0.4151 -0.9098
vn 0.7879 0.4151 -0.4549
vn 0.8660 0.0000 -0.5000
vn 0.7879 -0.4151 0.4549
vn 0.7879 0.4151 0.4549
vn 0.8660 0.0000 0.5000
vn 0.0000 -0.4151 0.9098
vn 0.0000 0.4151 0.9098
vn 0.0000 0.0000 1.0000
vn -0.7879 -0.4151 0.4549
vn -0.7879 0.4151 0.4549
vn -0.8660 0.0000 0.5000
vn -0.7879 -0.4151 -0.4549
vn -0.7879 0.4151 -0.4549
vn -0.8660 0.0000 -0.5000
vn -0.5218 0.4603 -0.7182
vn -0.3815 0.7607 -0.5251
vn -0.1711 0.9567 -0.2355
vn -0.5875 0.0302 -0.8086
vn -0.8443 0.4603 -0.2743
vn -0.6173 0.7607 -0.2006
vn -0.2769 0.9567 -0.0900
vn -0.9506 0.0302 -0.3088
vn -0.9506 0.0302 0.3088
vn -0.8443 0.4603 0.2743
vn -0.6173 0.7607 0.2006
vn -0.2769 0.9567 0.0900
vn -0.3815 0.7607 0.5251
vn -0.1711 0.9567 0.2355
vn -0.5218 0.4603 0.7182
vn -0.5875 0.0302 0.8086
vn 0.2302 0.0590 0.9713
vn 0.1319 -0.6317 0.7639
vn -0.1785 -0.9528 0.2457
vn -0.1785 -0.9528 -0.2457
vn -0.2888 -0.9528 0.0938
vn -0.2888 -0.9528 -0.0938
vn -0.7768 -0.5769 -0.2524
vn -0.4801 -0.5769 -0.6608
vn -0.7768 -0.5769 0.2524
vn -0.4801 -0.5769 0.6608
vn -0.0117 -0.2464 0.9691
vn 0.2993 -0.7555 0.5827
vn 0.2450 0.8415 0.4815
vn -0.0215 0.3759 0.9264
vn 0.0656 0.7705 0.6340
vn 0.0188 0.0461 0.9987
vn 0.6711 0.0481 0.7398
s 1
f 74/1/1 73/2/2 2/3/3 3/4/4
f 72/5/5 54/6/6 1/7/7
f 88/8/8 74/1/1 3/4/4 4/9/9
f 73/2/2 72/5/5 1/7/7 2/3/3
f 3/4/4 2/3/3 6/10/10 7/11/11
f 1/7/7 54/6/6 5/12/12
f 4/9/9 3/4/4 7/11/11 17/13/13
f 2/3/3 1/7/7 5/12/12 6/10/10
f 17/13/13 7/11/11 10/14/14 20/15/15
f 6/10/10 5/12/12 8/16/16 9/17/17
f 7/11/11 6/10/10 9/17/17 10/14/14
f 5/12/12 54/6/6 8/16/16
f 9/17/17 8/16/16 11/18/18 12/19/19
f 10/14/14 9/17/17 12/19/19 13/20/20
f 8/16/16 54/6/6 11/18/18
f 20/15/15 10/14/14 13/20/20 14/21/21
f 13/20/20 12/19/19 70/22/22 71/23/23
f 11/18/18 54/6/6 69/24/24
f 12/19/19 11/18/18 69/24/24 70/22/22
f 33/25/25 28/26/26 105/27/27 95/28/28
f 23/29/29 86/30/30 75/31/31
f 89/32/32 15/33/33 75/31/31
f 21/34/34 23/29/29 75/31/31
f 18/35/35 21/34/34 75/31/31
f 18/36/35 15/37/33 16/38/36 19/39/37
f 19/39/37 16/38/36 4/9/9 17/13/13
f 21/40/34 18/36/35 19/39/37 22/41/38
f 22/41/38 19/39/37 17/13/13 20/15/15
f 20/15/15 14/21/21 24/42/39 22/41/38
f 22/41/38 24/42/39 23/43/29 21/40/34
f 26/44/40 91/45/41 106/46/42 29/47/43
f 24/42/39 87/48/44 86/49/30 23/43/29
f 93/50/45 27/51/46 31/52/47 101/53/24
f 33/25/25 95/28/28 102/54/48 30/55/49
f 88/8/8 4/9/9 16/38/36 90/56/50
f 90/56/50 16/38/36 15/37/33 89/57/32
f 15/33/33 18/35/35 75/31/31
f 14/21/21 25/58/51 27/59/46 24/42/39
f 27/51/46 25/60/51 32/61/52 31/52/47
f 14/21/21 13/20/20 26/62/40 25/58/51
f 26/62/40 13/20/20 71/23/23 91/63/41
f 24/42/39 27/59/46 93/64/45 87/48/44
f 33/25/25 30/55/49 31/52/47 32/61/52
f 105/27/27 28/26/26 29/47/43 106/46/42
f 28/26/26 33/25/25 32/61/52 29/47/43
f 30/55/49 102/54/48 101/53/24 31/52/47
f 25/60/51 26/44/40 29/47/43 32/61/52
f 46/65/31 36/66/53 39/67/54
f 35/68/55 34/69/56 37/70/57 38/71/58
f 36/66/53 35/68/55 38/71/58 39/67/54
f 34/69/56 47/72/6 37/70/57
f 46/65/31 39/67/54 42/73/59
f 38/71/58 37/70/57 40/74/60 41/75/61
f 39/67/54 38/71/58 41/75/61 42/73/59
f 37/70/57 47/72/6 40/74/60
f 46/65/31 42/73/59 45/76/62
f 41/75/61 40/74/60 43/77/63 44/78/64
f 42/73/59 41/75/61 44/78/64 45/76/62
f 40/74/60 47/72/6 43/77/63
f 46/65/31 45/76/62 50/79/65
f 44/78/64 43/77/63 48/80/66 49/81/67
f 45/76/62 44/78/64 49/81/67 50/79/65
f 43/77/63 47/72/6 48/80/66
f 46/65/31 50/79/65 53/82/68
f 49/81/67 48/80/66 51/83/69 52/84/70
f 50/79/65 49/81/67 52/84/70 53/82/68
f 48/80/66 47/72/6 51/83/69
f 51/83/69 47/72/6 34/85/56
f 46/65/31 53/82/68 36/86/53
f 52/84/70 51/83/69 34/85/56 35/87/55
f 53/82/68 52/84/70 35/87/55 36/86/53
f 74/1/1 57/88/71 56/89/72 73/2/2
f 72/5/5 55/90/73 54/6/6
f 88/8/8 58/91/74 57/88/71 74/1/1
f 73/2/2 56/89/72 55/90/73 72/5/5
f 57/88/71 61/92/75 60/93/76 56/89/72
f 55/90/73 59/94/77 54/6/6
f 58/91/74 78/95/78 61/92/75 57/88/71
f 56/89/72 60/93/76 59/94/77 55/90/73
f 78/95/78 81/96/79 64/97/80 61/92/75
f 60/93/76 63/98/81 62/99/82 59/94/77
f 61/92/75 64/97/80 63/98/81 60/93/76
f 59/94/77 62/99/82 54/6/6
f 63/98/81 66/100/83 65/101/84 62/99/82
f 64/97/80 67/102/85 66/100/83 63/98/81
f 62/99/82 65/101/84 54/6/6
f 81/96/79 68/103/86 67/102/85 64/97/80
f 67/102/85 71/23/23 70/22/22 66/100/83
f 65/101/84 69/24/24 54/6/6
f 66/100/83 70/22/22 69/24/24 65/101/84
f 104/104/87 95/28/28 105/27/27 97/105/88
f 84/106/89 75/31/31 86/30/30
f 89/32/32 75/31/31 76/107/90
f 82/108/91 75/31/31 84/106/89
f 79/109/92 75/31/31 82/108/91
f 79/110/92 80/111/93 77/112/94 76/113/90
f 80/111/93 78/95/78 58/91/74 77/112/94
f 82/114/91 83/115/95 80/111/93 79/110/92
f 83/115/95 81/96/79 78/95/78 80/111/93
f 81/96/79 83/115/95 85/116/96 68/103/86
f 83/115/95 82/114/91 84/117/89 85/116/96
f 94/118/97 98/119/98 106/46/42 91/45/41
f 85/116/96 84/117/89 86/120/30 87/121/44
f 93/50/45 101/53/24 100/122/99 96/123/100
f 104/104/87 99/124/101 102/54/48 95/28/28
f 88/8/8 90/56/50 77/112/94 58/91/74
f 90/56/50 89/57/32 76/113/90 77/112/94
f 76/107/90 75/31/31 79/109/92
f 68/103/86 85/116/96 96/125/100 92/126/102
f 96/123/100 100/122/99 103/127/103 92/128/102
f 68/103/86 92/126/102 94/129/97 67/102/85
f 94/129/97 91/63/41 71/23/23 67/102/85
f 85/116/96 87/121/44 93/130/45 96/125/100
f 104/104/87 103/127/103 100/122/99 99/124/101
f 105/27/27 106/46/42 98/119/98 97/105/88
f 97/105/88 98/119/98 103/127/103 104/104/87
f 99/124/101 100/122/99 101/53/24 102/54/48
f 92/128/102 103/127/103 98/119/98 94/118/97
f 119/131/31 112/132/68 109/133/53
f 108/134/55 111/135/70 110/136/69 107/137/56
f 109/133/53 112/132/68 111/135/70 108/134/55
f 107/137/56 110/136/69 120/138/6
f 119/131/31 115/139/65 112/132/68
f 111/135/70 114/140/67 113/141/66 110/136/69
f 112/132/68 115/139/65 114/140/67 111/135/70
f 110/136/69 113/141/66 120/138/6
f 119/131/31 118/142/62 115/139/65
f 114/140/67 117/143/64 116/144/63 113/141/66
f 115/139/65 118/142/62 117/143/64 114/140/67
f 113/141/66 116/144/63 120/138/6
f 119/131/31 123/145/59 118/142/62
f 117/143/64 122/146/61 121/147/60 116/144/63
f 118/142/62 123/145/59 122/146/61 117/143/64
f 116/144/63 121/147/60 120/138/6
f 119/131/31 126/148/54 123/145/59
f 122/146/61 125/149/58 124/150/57 121/147/60
f 123/145/59 126/148/54 125/149/58 122/146/61
f 121/147/60 124/150/57 120/138/6
f 124/150/57 107/151/56 120/138/6
f 119/131/31 109/152/53 126/148/54
f 125/149/58 108/153/55 107/151/56 124/150/57
f 126/148/54 109/152/53 108/153/55 125/149/58
