# Blender v2.79 (sub 0) OBJ File: 'Cieni.blend'
# www.blender.org
o Cube
v -0.031394 -0.094944 0.000000
v 0.168220 -0.099909 0.000000
v -0.012293 -0.041504 -0.187500
v -0.012293 -0.041504 0.187500
v -0.196208 0.017162 -0.000000
v 0.317256 0.845776 0.000000
v 0.120551 0.827134 -0.197586
v 0.120551 0.827134 0.197587
v -0.076154 0.808492 -0.000000
v 0.172642 0.004311 -0.138889
v 0.172642 0.004311 0.138889
v -0.110555 0.085248 0.138889
v -0.110555 0.085248 -0.138889
v 0.261446 0.836264 -0.138889
v 0.261445 0.836264 0.138889
v -0.015093 0.810056 0.138889
v -0.015093 0.810056 -0.138889
v 0.095788 1.088434 -0.794607
v 0.115813 0.877133 -1.000000
v 0.062636 1.438244 -0.281121
v 0.285516 1.239768 -0.421866
v 0.439016 1.120962 -0.715916
v 0.547761 0.918070 -0.900969
v 0.055061 1.518169 -0.000000
v 0.447711 1.255139 -0.291941
v 0.714265 1.147047 -0.495429
v 0.894157 0.950898 -0.623490
v -0.058794 1.426736 -0.253281
v 0.537722 1.263670 -0.104193
v 0.867016 1.161524 -0.176817
v 1.086391 0.969116 -0.222521
v -0.156173 1.417507 -0.175276
v 0.537722 1.263670 0.104192
v 0.867016 1.161524 0.176816
v 1.086391 0.969116 0.222521
v -0.210214 1.412386 -0.062555
v 0.447711 1.255139 0.291940
v 0.714264 1.147047 0.495429
v 0.894156 0.950898 0.623490
v -0.210214 1.412386 0.062555
v 0.285516 1.239768 0.421866
v 0.439016 1.120962 0.715916
v 0.547761 0.918070 0.900969
v -0.156173 1.417507 0.175276
v 0.083262 1.220600 0.468236
v 0.095787 1.088434 0.794606
v 0.115812 0.877133 1.000000
v -0.058794 1.426736 0.253281
v -0.118992 1.201432 0.421866
v -0.247442 1.055906 0.715915
v -0.316136 0.836197 0.900968
v 0.062636 1.438244 0.281120
v -0.281187 1.186061 0.291940
v -0.522690 1.029820 0.495429
v -0.662531 0.803369 0.623489
v 0.184065 1.449752 0.253281
v 0.281444 1.458981 0.175276
v -0.371198 1.177531 0.104192
v -0.675441 1.015344 0.176816
v -0.854766 0.785151 0.222520
v 0.335485 1.464102 0.062555
v -0.371198 1.177531 -0.104193
v -0.675441 1.015344 -0.176817
v -0.854766 0.785151 -0.222521
v 0.335485 1.464102 -0.062555
v -0.281187 1.186061 -0.291941
v -0.522689 1.029820 -0.495429
v -0.662531 0.803369 -0.623490
v 0.184065 1.449752 -0.253281
v -0.118992 1.201432 -0.421866
v -0.247441 1.055906 -0.715916
v -0.316135 0.836197 -0.900969
v 0.281444 1.458981 -0.175276
v 0.083262 1.220600 -0.468236
v 0.349317 0.752602 -0.458316
v 0.525526 0.769302 -0.317165
v 0.623314 0.778569 -0.113195
v 0.623314 0.778570 0.113195
v 0.525526 0.769302 0.317164
v 0.349317 0.752603 0.458316
v 0.129588 0.731779 0.508692
v -0.090141 0.710955 0.458316
v -0.266350 0.694255 0.317164
v -0.364138 0.684988 0.113194
v -0.364138 0.684988 -0.113195
v -0.266349 0.694255 -0.317165
v -0.090141 0.710955 -0.458316
v 0.129588 0.731779 -0.508692
v 0.117791 0.856256 -0.000000
v 0.117791 0.856256 -0.000000
v 0.117791 0.856256 -0.000000
v 0.117791 0.856256 -0.000000
v 0.117791 0.856256 -0.000000
v 0.117791 0.856256 -0.000000
v 0.117791 0.856256 -0.000000
v 0.117791 0.856256 -0.000000
v 0.117791 0.856256 -0.000000
v 0.117791 0.856256 -0.000000
v 0.117791 0.856256 -0.000000
v 0.117791 0.856256 -0.000000
v 0.117791 0.856256 -0.000000
v 0.117791 0.856256 -0.000000
v 0.457999 0.652412 -0.663361
v 0.525928 0.723898 -0.817794
v 0.840346 0.753696 -0.565931
v 0.713041 0.676582 -0.459060
v 1.014834 0.770232 -0.201978
v 0.854579 0.689996 -0.163837
v 1.014834 0.770232 0.201978
v 0.854579 0.689996 0.163836
v 0.840345 0.753696 0.565931
v 0.713041 0.676582 0.459060
v 0.525928 0.723898 0.817794
v 0.457999 0.652412 0.663361
v 0.133856 0.686741 0.907682
v 0.139966 0.622271 0.736275
v -0.258216 0.649584 0.817793
v -0.178067 0.592131 0.663361
v -0.572633 0.619787 0.565930
v -0.433109 0.567960 0.459060
v -0.747121 0.603250 0.201978
v -0.574647 0.554547 0.163836
v -0.747121 0.603250 -0.201979
v -0.574647 0.554547 -0.163837
v -0.572633 0.619787 -0.565931
v -0.433109 0.567960 -0.459060
v -0.258215 0.649584 -0.817794
v -0.178066 0.592131 -0.663361
v 0.133856 0.686741 -0.907683
v 0.139966 0.622271 -0.736275
v 0.332830 0.781808 0.000000
v 0.388094 0.459624 0.000000
v 0.126698 0.762272 0.207056
v 0.154980 0.462073 0.227421
v -0.079434 0.742737 -0.000000
v -0.077848 0.464501 -0.000000
v 0.126698 0.762272 -0.207056
v 0.154980 0.462073 -0.227421
v 0.270916 0.773761 -0.144658
v 0.324292 0.460111 -0.165509
v 0.270916 0.773761 0.144658
v 0.324292 0.460111 0.165509
v -0.017110 0.746465 0.144658
v -0.014181 0.463402 0.165509
v -0.017110 0.746465 -0.144658
v -0.014181 0.463401 -0.165509
v 0.419024 0.265703 0.000000
v 0.340901 0.051493 0.000000
v 0.138753 0.299085 0.272195
v 0.070614 0.116223 0.260473
v -0.140322 0.332375 -0.000000
v -0.193523 0.180480 -0.000000
v 0.070614 0.116223 -0.260473
v 0.138753 0.299085 -0.272194
v 0.256514 0.079354 -0.177178
v 0.341287 0.276655 -0.196524
v 0.341287 0.276655 0.196524
v 0.256514 0.079353 0.177179
v -0.062278 0.323986 0.196524
v -0.106386 0.165671 0.177178
v -0.062278 0.323986 -0.196524
v -0.106386 0.165671 -0.177178
vt 0.871691 0.018723
vt 0.880918 0.052834
vt 0.859210 0.065022
vt 0.836658 0.043507
vt 0.801626 0.018723
vt 0.814107 0.065022
vt 0.792398 0.052834
vt 0.767956 0.052102
vt 0.757155 0.019790
vt 0.916161 0.019791
vt 0.905360 0.052102
vt 0.777247 0.178159
vt 0.807342 0.181039
vt 0.806742 0.193453
vt 0.775844 0.191239
vt 0.836658 0.182740
vt 0.836658 0.195242
vt 0.836658 0.080608
vt 0.858835 0.080438
vt 0.784858 0.124532
vt 0.752770 0.118336
vt 0.758289 0.091515
vt 0.788854 0.099599
vt 0.713220 0.172477
vt 0.746230 0.173970
vt 0.745375 0.187214
vt 0.713290 0.186403
vt 0.790359 0.074932
vt 0.814481 0.080438
vt 0.957546 0.112530
vt 0.920546 0.118336
vt 0.915027 0.091515
vt 0.954239 0.079286
vt 0.960096 0.172477
vt 0.960025 0.186403
vt 0.927941 0.187214
vt 0.927086 0.173971
vt 0.732576 0.046160
vt 0.763573 0.065905
vt 0.884463 0.099599
vt 0.888458 0.124533
vt 0.860961 0.127509
vt 0.858995 0.104112
vt 0.896069 0.178160
vt 0.897472 0.191240
vt 0.866574 0.193453
vt 0.865974 0.181039
vt 0.728481 0.683141
vt 0.661368 0.649344
vt 0.678227 0.566779
vt 0.753358 0.568110
vt 0.515500 0.675371
vt 0.467639 0.676577
vt 0.477933 0.619999
vt 0.500226 0.619930
vt 0.250548 0.126144
vt 0.238437 0.178409
vt 0.201906 0.160569
vt 0.209846 0.125919
vt 0.586996 0.615348
vt 0.596470 0.568418
vt 0.657594 0.485075
vt 0.725862 0.453677
vt 0.553860 0.485358
vt 0.584644 0.522026
vt 0.533991 0.549253
vt 0.520037 0.531867
vt 0.204941 0.220226
vt 0.179759 0.188389
vt 0.603553 0.420415
vt 0.651437 0.362506
vt 0.534126 0.592722
vt 0.539020 0.570972
vt 0.156736 0.243404
vt 0.147845 0.203877
vt 0.381385 0.573838
vt 0.390859 0.526909
vt 0.443728 0.549535
vt 0.438835 0.571284
vt 0.103325 0.243411
vt 0.112466 0.203986
vt 0.510216 0.465679
vt 0.526810 0.385606
vt 0.544826 0.312656
vt 0.055219 0.220242
vt 0.080605 0.188691
vt 0.462355 0.466885
vt 0.442563 0.387542
vt 0.427143 0.313999
vt 0.499922 0.522257
vt 0.477628 0.522326
vt 0.021901 0.178424
vt 0.058560 0.161006
vt 0.419757 0.488738
vt 0.367500 0.425839
vt 0.321698 0.366270
vt 0.558098 0.653519
vt 0.520281 0.610195
vt 0.488927 0.571128
vt 0.010008 0.126144
vt 0.050717 0.126397
vt 0.316486 0.492913
vt 0.249374 0.459115
vt 0.457573 0.532062
vt 0.022169 0.073882
vt 0.058690 0.091738
vt 0.299627 0.575478
vt 0.224496 0.574146
vt 0.423994 0.656898
vt 0.393210 0.620231
vt 0.443863 0.593003
vt 0.457817 0.610389
vt 0.320261 0.657181
vt 0.251993 0.688579
vt 0.055676 0.032105
vt 0.080831 0.063939
vt 0.374301 0.721841
vt 0.326417 0.779750
vt 0.103860 0.008964
vt 0.112733 0.048471
vt 0.451044 0.756650
vt 0.433028 0.829601
vt 0.157234 0.008970
vt 0.148095 0.048373
vt 0.535291 0.754714
vt 0.550711 0.828257
vt 0.205309 0.032121
vt 0.179943 0.063661
vt 0.610355 0.716417
vt 0.656157 0.775987
vt 0.238622 0.073899
vt 0.201987 0.091329
vt 0.185198 0.427139
vt 0.152802 0.573182
vt 0.416135 0.899282
vt 0.565724 0.898368
vt 0.186980 0.718817
vt 0.700103 0.832641
vt 0.792656 0.715117
vt 0.825052 0.569075
vt 0.561720 0.242974
vt 0.412130 0.243888
vt 0.277751 0.309616
vt 0.790874 0.423439
vt 0.696892 0.307055
vt 0.280962 0.835201
vt 0.131194 0.126692
vt 0.131270 0.126662
vt 0.130990 0.126625
vt 0.129535 0.125672
vt 0.129321 0.125603
vt 0.130642 0.126486
vt 0.129897 0.125818
vt 0.130227 0.126295
vt 0.130346 0.126021
vt 0.129821 0.126084
vt 0.130779 0.126248
vt 0.129505 0.125894
vt 0.131120 0.126481
vt 0.129335 0.125768
vt 0.874753 0.385324
vt 0.917161 0.571128
vt 0.755927 0.236321
vt 0.584218 0.153631
vt 0.393636 0.153631
vt 0.221927 0.236321
vt 0.103102 0.385324
vt 0.060693 0.571128
vt 0.103102 0.756932
vt 0.221928 0.905935
vt 0.393636 0.988625
vt 0.584218 0.988625
vt 0.755927 0.905935
vt 0.874753 0.756932
vt 0.836658 0.128129
vt 0.812355 0.127509
vt 0.836658 0.105520
vt 0.814321 0.104112
vt 0.940740 0.046160
vt 0.909743 0.065905
vt 0.715770 0.112530
vt 0.719077 0.079286
vt 0.882957 0.074933
vn -0.3151 -0.9490 0.0000
vn -0.2415 -0.6790 -0.6932
vn 0.3631 -0.7296 -0.5795
vn 0.3655 -0.9308 0.0000
vn 0.3631 -0.7296 0.5795
vn -0.2415 -0.6790 0.6932
vn -0.7300 -0.2794 0.6236
vn -0.9006 -0.4345 0.0000
vn -0.7300 -0.2794 -0.6237
vn -0.0095 0.1094 0.9939
vn 0.6881 0.1696 0.7055
vn 0.6925 0.1897 0.6960
vn -0.0156 0.1360 0.9906
vn 0.9805 0.1966 0.0000
vn 0.9771 0.2126 0.0000
vn 0.8107 -0.5854 0.0000
vn 0.5597 -0.4771 -0.6776
vn 0.0293 0.1772 0.9837
vn -0.6665 0.2105 0.7151
vn -0.6475 0.2542 0.7184
vn 0.0301 0.0725 0.9969
vn -0.9995 0.0329 0.0000
vn -0.7083 0.0535 0.7038
vn -0.7046 0.0808 0.7049
vn -0.9982 0.0602 0.0000
vn -0.0574 -0.2665 0.9621
vn 0.5597 -0.4771 0.6776
vn -0.9744 0.2248 0.0000
vn -0.6665 0.2105 -0.7151
vn -0.6475 0.2542 -0.7184
vn -0.9402 0.3406 0.0000
vn -0.7046 0.0808 -0.7049
vn -0.7083 0.0535 -0.7038
vn -0.9937 0.1124 0.0000
vn -0.7056 0.0218 0.7083
vn 0.0301 0.0725 -0.9969
vn 0.0293 0.1772 -0.9837
vn 0.7050 0.1716 -0.6881
vn 0.7035 -0.0634 -0.7078
vn -0.0095 0.1094 -0.9939
vn -0.0156 0.1360 -0.9906
vn 0.6925 0.1897 -0.6960
vn 0.6881 0.1696 -0.7055
vn -0.0139 0.1469 -0.9890
vn -0.0769 0.8115 -0.5792
vn 0.1733 0.8352 -0.5219
vn 0.4133 0.1874 -0.8911
vn -0.5153 0.7821 -0.3503
vn -0.6233 0.7719 -0.1250
vn -0.6289 0.7672 -0.1263
vn -0.5197 0.7775 -0.3541
vn 0.0943 -0.9955 -0.0119
vn 0.0995 -0.9950 -0.0107
vn -0.0636 -0.9463 0.3170
vn 0.0883 -0.9319 0.3518
vn -0.0780 0.8236 -0.5618
vn 0.1646 0.8466 -0.5061
vn 0.3739 0.8542 -0.3612
vn 0.7559 0.2198 -0.6167
vn 0.4672 0.8752 -0.1250
vn 0.3592 0.8650 -0.3503
vn 0.3644 0.8613 -0.3541
vn 0.4735 0.8716 -0.1263
vn 0.1036 -0.9946 -0.0074
vn -0.1855 -0.9578 0.2194
vn 0.4853 0.8648 -0.1289
vn 0.9460 0.2379 -0.2201
vn -0.0776 0.8194 -0.5679
vn 0.1676 0.8426 -0.5117
vn 0.1059 -0.9944 -0.0026
vn -0.2532 -0.9642 0.0783
vn -0.3207 0.8006 0.5061
vn -0.0780 0.8236 0.5618
vn -0.0776 0.8194 0.5679
vn -0.3229 0.7961 0.5117
vn 0.1059 -0.9944 0.0026
vn -0.2532 -0.9642 -0.0783
vn 0.4672 0.8752 0.1250
vn 0.4853 0.8648 0.1289
vn 0.9460 0.2379 0.2201
vn 0.1036 -0.9946 0.0074
vn -0.1855 -0.9578 -0.2194
vn 0.3592 0.8650 0.3503
vn 0.3739 0.8542 0.3612
vn 0.7559 0.2198 0.6167
vn 0.4735 0.8716 0.1263
vn 0.3644 0.8613 0.3541
vn 0.0995 -0.9950 0.0107
vn -0.0636 -0.9463 -0.3170
vn 0.1646 0.8466 0.5061
vn 0.1733 0.8352 0.5219
vn 0.4133 0.1874 0.8911
vn -0.3207 0.8006 -0.5061
vn -0.3229 0.7961 -0.5117
vn -0.0943 0.9955 0.0000
vn 0.0943 -0.9955 0.0119
vn 0.0883 -0.9319 -0.3518
vn -0.0769 0.8115 0.5792
vn -0.0139 0.1469 0.9890
vn 0.1676 0.8426 0.5117
vn 0.0892 -0.9959 0.0107
vn 0.2403 -0.9175 -0.3170
vn -0.3271 0.7878 0.5219
vn -0.4411 0.1064 0.8911
vn -0.6233 0.7719 0.1250
vn -0.5153 0.7821 0.3503
vn -0.5197 0.7775 0.3541
vn -0.6289 0.7672 0.1263
vn -0.5278 0.7688 0.3612
vn -0.7837 0.0739 0.6167
vn 0.0851 -0.9963 0.0074
vn 0.3622 -0.9059 -0.2194
vn -0.6391 0.7582 0.1289
vn -0.9739 0.0559 0.2201
vn 0.0828 -0.9966 0.0026
vn 0.4298 -0.8995 -0.0783
vn -0.6391 0.7582 -0.1289
vn -0.9739 0.0559 -0.2201
vn 0.0828 -0.9966 -0.0026
vn 0.4298 -0.8995 0.0783
vn -0.5278 0.7688 -0.3612
vn -0.7837 0.0739 -0.6167
vn 0.0851 -0.9963 -0.0074
vn 0.3622 -0.9059 0.2194
vn -0.3271 0.7878 -0.5219
vn -0.4411 0.1064 -0.8911
vn 0.0892 -0.9959 -0.0107
vn 0.2403 -0.9175 0.3170
vn 0.0672 -0.7091 0.7019
vn -0.2360 -0.7378 0.6324
vn -0.6141 -0.7736 -0.1562
vn -0.4791 -0.7608 -0.4376
vn -0.4791 -0.7608 0.4376
vn -0.2360 -0.7378 -0.6324
vn 0.0672 -0.7091 -0.7019
vn 0.3704 -0.6803 -0.6324
vn 0.7485 -0.6445 0.1562
vn 0.6135 -0.6573 0.4376
vn 0.3704 -0.6803 0.6324
vn 0.6135 -0.6573 -0.4376
vn 0.7485 -0.6445 -0.1562
vn -0.6141 -0.7736 0.1562
vn 0.1947 -0.9570 -0.2150
vn 0.0916 -0.9667 -0.2387
vn 0.2774 -0.9492 -0.1488
vn -0.0941 -0.9843 0.1488
vn -0.0115 -0.9765 0.2150
vn 0.3233 -0.9448 -0.0531
vn -0.1400 -0.9887 0.0531
vn 0.3233 -0.9448 0.0531
vn -0.1400 -0.9887 -0.0531
vn 0.2774 -0.9492 0.1488
vn -0.0941 -0.9843 -0.1488
vn 0.1947 -0.9570 0.2150
vn -0.0115 -0.9765 -0.2150
vn 0.0916 -0.9667 0.2387
vn 0.9857 0.1685 0.0000
vn 0.7050 0.1716 0.6881
vn 0.9929 -0.1192 0.0000
vn 0.7035 -0.0634 0.7078
vn -0.7056 0.0218 -0.7083
vn -0.0574 -0.2665 -0.9621
s 1
f 1/1/1 3/2/2 10/3/3 2/4/4
f 1/5/1 2/4/4 11/6/5 4/7/6
f 1/5/1 4/7/6 12/8/7 5/9/8
f 1/1/1 5/10/8 13/11/9 3/2/2
f 133/12/10 141/13/11 15/14/12 8/15/13
f 131/16/14 6/17/15 15/14/12 141/13/11
f 148/18/16 2/4/4 10/3/3 155/19/17
f 134/20/18 144/21/19 159/22/20 149/23/21
f 135/24/22 143/25/23 16/26/24 9/27/25
f 133/12/10 8/15/13 16/26/24 143/25/23
f 150/28/26 4/7/6 11/6/5 158/29/27
f 136/30/28 146/31/29 161/32/30 151/33/31
f 135/34/22 9/35/25 17/36/32 145/37/33
f 152/38/34 5/9/8 12/8/7 160/39/35
f 154/40/36 161/32/30 146/31/29 138/41/37
f 138/41/37 140/42/38 156/43/39 154/40/36
f 137/44/40 145/37/33 17/36/32 7/45/41
f 137/44/40 7/45/41 14/46/42 139/47/43
f 19/48/44 18/49/45 22/50/46 23/51/47
f 66/52/48 62/53/49 36/54/50 32/55/51
f 130/56/52 103/57/53 75/58/54 88/59/55
f 18/49/45 74/60/56 21/61/57 22/50/46
f 23/51/47 22/50/46 26/62/58 27/63/59
f 29/64/60 25/65/61 73/66/62 65/67/63
f 103/57/53 106/68/64 76/69/65 75/58/54
f 22/50/46 21/61/57 25/65/61 26/62/58
f 27/63/59 26/62/58 30/70/66 31/71/67
f 21/61/57 74/60/56 20/72/68 69/73/69
f 106/68/64 108/74/70 77/75/71 76/69/65
f 26/62/58 25/65/61 29/64/60 30/70/66
f 49/76/72 45/77/73 52/78/74 48/79/75
f 108/74/70 110/80/76 78/81/77 77/75/71
f 30/70/66 29/64/60 33/82/78 34/83/79
f 31/71/67 30/70/66 34/83/79 35/84/80
f 110/80/76 112/85/81 79/86/82 78/81/77
f 34/83/79 33/82/78 37/87/83 38/88/84
f 35/84/80 34/83/79 38/88/84 39/89/85
f 37/87/83 33/82/78 61/90/86 57/91/87
f 112/85/81 114/92/88 80/93/89 79/86/82
f 38/88/84 37/87/83 41/94/90 42/95/91
f 39/89/85 38/88/84 42/95/91 43/96/92
f 70/97/93 66/52/48 32/55/51 28/98/94
f 32/55/51 24/99/95 28/98/94
f 114/92/88 116/100/96 81/101/97 80/93/89
f 42/95/91 41/94/90 45/77/73 46/102/98
f 28/98/94 24/99/95 20/72/68
f 43/96/92 42/95/91 46/102/98 47/103/99
f 41/94/90 37/87/83 57/91/87 56/104/100
f 116/100/96 118/105/101 82/106/102 81/101/97
f 46/102/98 45/77/73 49/76/72 50/107/103
f 36/54/50 24/99/95 32/55/51
f 47/103/99 46/102/98 50/107/103 51/108/104
f 58/109/105 53/110/106 44/111/107 40/112/108
f 40/112/108 24/99/95 36/54/50
f 50/107/103 49/76/72 53/110/106 54/113/109
f 44/111/107 24/99/95 40/112/108
f 51/108/104 50/107/103 54/113/109 55/114/110
f 25/65/61 21/61/57 69/73/69 73/66/62
f 48/79/75 24/99/95 44/111/107
f 118/105/101 120/115/111 83/116/112 82/106/102
f 52/78/74 24/99/95 48/79/75
f 55/114/110 54/113/109 59/117/113 60/118/114
f 33/82/78 29/64/60 65/67/63 61/90/86
f 56/104/100 24/99/95 52/78/74
f 120/115/111 122/119/115 84/120/116 83/116/112
f 54/113/109 53/110/106 58/109/105 59/117/113
f 73/66/62 24/99/95 65/67/63
f 60/118/114 59/117/113 63/121/117 64/122/118
f 45/77/73 41/94/90 56/104/100 52/78/74
f 57/91/87 24/99/95 56/104/100
f 122/119/115 124/123/119 85/124/120 84/120/116
f 59/117/113 58/109/105 62/53/49 63/121/117
f 69/73/69 24/99/95 73/66/62
f 64/122/118 63/121/117 67/125/121 68/126/122
f 53/110/106 49/76/72 48/79/75 44/111/107
f 61/90/86 24/99/95 57/91/87
f 124/123/119 126/127/123 86/128/124 85/124/120
f 63/121/117 62/53/49 66/52/48 67/125/121
f 20/72/68 24/99/95 69/73/69
f 68/126/122 67/125/121 71/129/125 72/130/126
f 74/60/56 70/97/93 28/98/94 20/72/68
f 65/67/63 24/99/95 61/90/86
f 126/127/123 128/131/127 87/132/128 86/128/124
f 67/125/121 66/52/48 70/97/93 71/129/125
f 72/130/126 71/129/125 18/49/45 19/48/44
f 62/53/49 58/109/105 40/112/108 36/54/50
f 128/131/127 130/56/52 88/59/55 87/132/128
f 71/129/125 70/97/93 74/60/56 18/49/45
f 115/133/129 47/103/99 51/108/104 117/134/130
f 123/135/131 64/122/118 68/126/122 125/136/132
f 117/134/130 51/108/104 55/114/110 119/137/133
f 125/136/132 68/126/122 72/130/126 127/138/134
f 127/138/134 72/130/126 19/48/44 129/139/135
f 129/139/135 19/48/44 23/51/47 104/140/136
f 109/141/137 35/84/80 39/89/85 111/142/138
f 111/142/138 39/89/85 43/96/92 113/143/139
f 105/144/140 27/63/59 31/71/67 107/145/141
f 113/143/139 43/96/92 47/103/99 115/133/129
f 121/146/142 60/118/114 64/122/118 123/135/131
f 107/145/141 31/71/67 35/84/80 109/141/137
f 119/137/133 55/114/110 60/118/114 121/146/142
f 81/101/97 82/106/102 96/147/143 95/148/144
f 82/106/102 83/116/112 97/149/145 96/147/143
f 75/58/54 76/69/65 90/150/146 89/151/147
f 83/116/112 84/120/116 98/152/148 97/149/145
f 76/69/65 77/75/71 91/153/149 90/150/146
f 84/120/116 85/124/120 99/154/150 98/152/148
f 77/75/71 78/81/77 92/155/151 91/153/149
f 85/124/120 86/128/124 100/156/152 99/154/150
f 78/81/77 79/86/82 93/157/153 92/155/151
f 86/128/124 87/132/128 101/158/154 100/156/152
f 79/86/82 80/93/89 94/159/155 93/157/153
f 87/132/128 88/59/55 102/160/156 101/158/154
f 80/93/89 81/101/97 95/148/144 94/159/155
f 88/59/55 75/58/54 89/151/147 102/160/156
f 104/140/136 105/144/140 106/161/64 103/162/53
f 108/163/70 106/161/64 105/144/140 107/145/141
f 110/164/76 108/163/70 107/145/141 109/141/137
f 112/165/81 110/164/76 109/141/137 111/142/138
f 114/166/88 112/165/81 111/142/138 113/143/139
f 116/167/96 114/166/88 113/143/139 115/133/129
f 118/168/101 116/167/96 115/133/129 117/134/130
f 117/134/130 119/137/133 120/169/111 118/168/101
f 119/137/133 121/146/142 122/170/115 120/169/111
f 121/146/142 123/135/131 124/171/119 122/170/115
f 123/135/131 125/136/132 126/172/123 124/171/119
f 125/136/132 127/138/134 128/173/127 126/172/123
f 130/174/52 128/173/127 127/138/134 129/139/135
f 129/139/135 104/140/136 103/162/53 130/174/52
f 104/140/136 23/51/47 27/63/59 105/144/140
f 148/18/16 158/29/27 11/6/5 2/4/4
f 132/175/157 140/42/38 139/47/43 131/16/14
f 131/16/14 141/13/11 142/176/158 132/175/157
f 147/177/159 156/43/39 140/42/38 132/175/157
f 150/28/26 160/39/35 12/8/7 4/7/6
f 134/20/18 142/176/158 141/13/11 133/12/10
f 133/12/10 143/25/23 144/21/19 134/20/18
f 149/23/21 157/178/160 142/176/158 134/20/18
f 152/179/34 162/180/161 13/11/9 5/10/8
f 136/181/28 144/21/19 143/25/23 135/24/22
f 135/34/22 145/37/33 146/31/29 136/30/28
f 151/182/31 159/22/20 144/21/19 136/181/28
f 137/44/40 139/47/43 140/42/38 138/41/37
f 153/183/162 155/19/17 10/3/3 3/2/2
f 153/183/162 3/2/2 13/11/9 162/180/161
f 138/41/37 146/31/29 145/37/33 137/44/40
f 131/16/14 139/47/43 14/46/42 6/17/15
f 148/18/16 155/19/17 156/43/39 147/177/159
f 158/29/27 148/18/16 147/177/159 157/178/160
f 150/28/26 158/29/27 157/178/160 149/23/21
f 160/39/35 150/28/26 149/23/21 159/22/20
f 152/38/34 160/39/35 159/22/20 151/182/31
f 162/180/161 152/179/34 151/33/31 161/32/30
f 155/19/17 153/183/162 154/40/36 156/43/39
f 153/183/162 162/180/161 161/32/30 154/40/36
f 132/175/157 142/176/158 157/178/160 147/177/159
