# Blender v2.79 (sub 0) OBJ File: 'Eternal_Flaaaame.blend'
# www.blender.org
mtllib Eternal_Flaaaame.mtl
o Sphere
v -0.000000 0.340051 0.369552
v 0.000000 0.189632 -0.461940
v 0.000000 0.084598 -0.353553
v 0.000000 0.025148 -0.191342
v -0.000000 0.572528 0.382236
v -0.000000 0.811520 0.259152
v 0.219843 0.617463 -0.380780
v 0.250000 0.363405 -0.433013
v 0.230970 0.189632 -0.400052
v 0.176777 0.084598 -0.306186
v 0.095671 0.025148 -0.165707
v 0.141421 0.166907 0.244949
v 0.184776 0.340051 0.320041
v 0.191118 0.572528 0.331026
v 0.411467 0.476994 -0.237561
v 0.433013 0.363405 -0.250000
v 0.400052 0.189632 -0.230970
v 0.306186 0.084598 -0.176777
v 0.165707 0.025148 -0.095671
v 0.159384 0.704791 0.276061
v 0.244949 0.166907 0.141421
v 0.439686 0.617463 -0.000000
v 0.500000 0.363405 -0.000000
v 0.461940 0.189632 -0.000000
v 0.353553 0.084598 -0.000000
v 0.191342 0.025148 -0.000000
v 0.320041 0.340051 0.184776
v 0.331026 0.572528 0.191118
v 0.411467 0.476994 0.237561
v 0.433013 0.363405 0.250000
v 0.400052 0.189632 0.230970
v 0.306186 0.084598 0.176777
v 0.165707 0.025148 0.095671
v 0.224432 0.811520 0.129576
v 0.282843 0.166907 -0.000000
v 0.219843 0.617463 0.380779
v 0.250000 0.363405 0.433012
v 0.230970 0.189632 0.400051
v 0.176777 0.084598 0.306186
v 0.095671 0.025148 0.165707
v 0.369552 0.340051 -0.000000
v 0.382236 0.572528 -0.000000
v -0.000000 0.476994 0.475121
v -0.000000 0.363405 0.500000
v -0.000000 0.189632 0.461940
v -0.000000 0.084598 0.353553
v 0.000000 0.025148 0.191342
v 0.318769 0.704791 -0.000000
v 0.244949 0.166907 -0.141421
v -0.219843 0.617463 0.380779
v -0.250000 0.363405 0.433012
v -0.230970 0.189632 0.400051
v -0.176777 0.084598 0.306186
v -0.095671 0.025148 0.165707
v 0.320041 0.340051 -0.184776
v 0.331026 0.572528 -0.191118
v -0.411467 0.476994 0.237561
v -0.433013 0.363405 0.250000
v -0.400052 0.189632 0.230970
v -0.306186 0.084598 0.176776
v -0.165707 0.025148 0.095671
v 0.224432 0.811520 -0.129576
v 0.141421 0.166907 -0.244949
v -0.439686 0.617463 -0.000000
v -0.500000 0.363405 -0.000000
v -0.461940 0.189632 -0.000000
v -0.353553 0.084598 -0.000000
v -0.191342 0.025148 -0.000000
v 0.184776 0.340051 -0.320041
v 0.191118 0.572528 -0.331026
v -0.411467 0.476994 -0.237561
v -0.433013 0.363405 -0.250000
v -0.400051 0.189632 -0.230970
v -0.306186 0.084598 -0.176777
v -0.165707 0.025148 -0.095671
v 0.000000 0.000000 -0.000000
v 0.159384 0.704791 -0.276062
v 0.000000 0.166907 -0.282843
v -0.219843 0.617463 -0.380780
v -0.250000 0.363405 -0.433013
v -0.230970 0.189632 -0.400052
v -0.176777 0.084598 -0.306186
v -0.095671 0.025148 -0.165707
v 0.000000 0.340051 -0.369552
v 0.000000 0.476994 -0.475122
v 0.000000 0.363405 -0.500000
v 0.000000 0.572543 -0.246945
v 0.066823 0.846411 -0.115741
v 0.123472 0.572543 -0.213861
v 0.161324 0.304505 -0.279422
v -0.000000 0.988212 -0.000000
v 0.115740 0.846411 -0.066823
v 0.213860 0.572543 -0.123473
v 0.279422 0.304505 -0.161325
v 0.133646 0.846411 -0.000000
v 0.246945 0.572543 -0.000000
v 0.322649 0.304505 -0.000000
v 0.115740 0.846411 0.066823
v 0.213860 0.572543 0.123472
v 0.279422 0.304505 0.161324
v 0.066823 0.846411 0.115740
v 0.123472 0.572543 0.213860
v 0.161324 0.304505 0.279422
v 0.000000 0.846411 0.133645
v -0.000000 0.572543 0.246945
v -0.000000 0.304505 0.322649
v -0.066823 0.846411 0.115740
v -0.123472 0.572543 0.213860
v -0.161324 0.304505 0.279422
v -0.115740 0.846411 0.066823
v -0.213860 0.572543 0.123472
v -0.279422 0.304505 0.161324
v -0.133646 0.846411 -0.000000
v -0.246945 0.572543 -0.000000
v -0.322649 0.304505 -0.000000
v -0.115740 0.846411 -0.066823
v -0.213860 0.572543 -0.123473
v -0.279422 0.304505 -0.161325
v -0.066823 0.846411 -0.115741
v -0.123472 0.572543 -0.213861
v -0.161324 0.304505 -0.279422
v 0.000000 0.846411 -0.133646
v 0.000000 0.304505 -0.322649
v -0.000000 0.166907 0.282843
v -0.159384 0.704791 0.276061
v -0.191118 0.572528 0.331026
v -0.184776 0.340051 0.320041
v -0.141421 0.166907 0.244949
v -0.224432 0.811520 0.129576
v -0.331026 0.572528 0.191118
v -0.320041 0.340051 0.184776
v -0.244949 0.166907 0.141421
v -0.318769 0.704791 -0.000000
v -0.382236 0.572528 -0.000000
v -0.369552 0.340051 -0.000000
v -0.282843 0.166907 -0.000000
v -0.224432 0.811520 -0.129576
v -0.331026 0.572528 -0.191118
v -0.320041 0.340051 -0.184776
v -0.244949 0.166907 -0.141421
v -0.159384 0.704791 -0.276062
v -0.191118 0.572528 -0.331026
v -0.184776 0.340051 -0.320041
v -0.141421 0.166907 -0.244949
v 0.000000 0.811520 -0.259152
v 0.000000 0.572528 -0.382236
vt 0.112677 0.383332
vt 0.112677 0.592599
vt 0.020014 0.592599
vt 0.020014 0.383332
vt 0.820440 0.020803
vt 0.874650 0.116587
vt 0.846305 0.116587
vt 0.919342 0.202105
vt 0.952034 0.279738
vt 0.880082 0.279738
vt 0.866362 0.202105
vt 0.977590 0.381041
vt 0.986431 0.493730
vt 0.911377 0.493730
vt 0.892671 0.381041
vt 0.112677 0.807742
vt 0.020014 0.807742
vt 0.112677 0.199731
vt 0.020014 0.199731
vt 0.816955 0.493730
vt 0.812740 0.381041
vt 0.197239 0.592599
vt 0.197239 0.807742
vt 0.809836 0.202105
vt 0.812839 0.116587
vt 0.810012 0.279738
vt 0.197239 0.199731
vt 0.197239 0.383332
vt 0.748290 0.202105
vt 0.779375 0.116587
vt 0.727362 0.381041
vt 0.731258 0.279738
vt 0.283591 0.592599
vt 0.283591 0.807742
vt 0.283591 0.199731
vt 0.283591 0.383332
vt 0.737091 0.493730
vt 0.366624 0.383332
vt 0.366624 0.592599
vt 0.366624 0.807742
vt 0.594148 0.020803
vt 0.642014 0.116587
vt 0.613069 0.116587
vt 0.680946 0.202105
vt 0.708384 0.279738
vt 0.636302 0.279738
vt 0.627335 0.202105
vt 0.647527 0.493730
vt 0.643114 0.381041
vt 0.366624 0.199731
vt 0.580620 0.116587
vt 0.568119 0.279738
vt 0.572392 0.202105
vt 0.565739 0.493730
vt 0.565461 0.381041
vt 0.449141 0.383332
vt 0.449141 0.592599
vt 0.449141 0.807742
vt 0.449141 0.199731
vt 0.531375 0.592599
vt 0.531375 0.807742
vt 0.514781 0.202105
vt 0.549665 0.116587
vt 0.483823 0.381041
vt 0.493592 0.279738
vt 0.531375 0.199731
vt 0.531375 0.383332
vt 0.484081 0.493730
vt 0.417270 0.116587
vt 0.449981 0.202105
vt 0.396395 0.202105
vt 0.387969 0.116587
vt 0.471729 0.279738
vt 0.402164 0.381041
vt 0.400696 0.279738
vt 0.609541 0.592599
vt 0.609541 0.807742
vt 0.609541 0.199731
vt 0.609541 0.383332
vt 0.376135 0.020803
vt 0.403207 0.493730
vt 0.690178 0.383332
vt 0.690178 0.592599
vt 0.356780 0.116587
vt 0.335003 0.279738
vt 0.343492 0.202105
vt 0.323909 0.493730
vt 0.327404 0.381041
vt 0.690178 0.807742
vt 0.690178 0.199731
vt 0.264730 0.279738
vt 0.289961 0.202105
vt 0.241521 0.493730
vt 0.249434 0.381041
vt 0.763604 0.383332
vt 0.763604 0.592599
vt 0.328500 0.116587
vt 0.763604 0.807742
vt 0.763604 0.199731
vt 0.199553 0.116587
vt 0.226606 0.202105
vt 0.173602 0.202105
vt 0.170351 0.116587
vt 0.243343 0.279738
vt 0.170173 0.381041
vt 0.173709 0.279738
vt 0.842324 0.592599
vt 0.842324 0.807742
vt 0.842324 0.199731
vt 0.842324 0.383332
vt 0.164750 0.020803
vt 0.167023 0.493730
vt 0.098927 0.381041
vt 0.111045 0.279738
vt 0.911703 0.199731
vt 0.911703 0.383332
vt 0.911703 0.592599
vt 0.140702 0.116587
vt 0.123194 0.202105
vt 0.083778 0.493730
vt 0.911703 0.807742
vt 0.115187 0.116587
vt 0.045964 0.279738
vt 0.074210 0.202105
vt 0.018882 0.493730
vt 0.025976 0.381041
vt 0.984583 0.383332
vt 0.984583 0.592599
vt 0.984583 0.807742
vt 0.984583 0.199731
vt 0.574342 0.838580
vt 0.504491 0.989097
vt 0.570645 0.838580
vt 0.670413 0.648439
vt 0.658571 0.648439
vt 0.761003 0.458093
vt 0.742360 0.458093
vt 0.564327 0.838580
vt 0.639651 0.648439
vt 0.714554 0.458093
vt 0.614089 0.648439
vt 0.676737 0.458093
vt 0.553527 0.838580
vt 0.582667 0.648439
vt 0.629338 0.458093
vt 0.539293 0.838580
vt 0.522676 0.838580
vt 0.546703 0.648439
vt 0.574033 0.458093
vt 0.504791 0.838580
vt 0.507973 0.648439
vt 0.513547 0.458093
vt 0.468573 0.648439
vt 0.451327 0.458093
vt 0.486814 0.838580
vt 0.469952 0.838580
vt 0.430723 0.648439
vt 0.391123 0.458093
vt 0.455407 0.838580
vt 0.396558 0.648439
vt 0.336524 0.458093
vt 0.367921 0.648439
vt 0.290486 0.458093
vt 0.444355 0.838580
vt 0.346196 0.648439
vt 0.254904 0.458093
vt 0.437961 0.838580
vt 0.434349 0.838580
vt 0.332164 0.648439
vt 0.230256 0.458093
vn -0.4843 -0.2485 -0.8388
vn -0.4902 0.1971 -0.8490
vn 0.0000 0.1958 -0.9806
vn 0.0000 -0.2485 -0.9686
vn 0.0000 -1.0000 0.0000
vn 0.0000 -0.9667 -0.2558
vn 0.1279 -0.9667 -0.2215
vn 0.0000 -0.8315 -0.5554
vn 0.0000 -0.4675 -0.8840
vn 0.4420 -0.4675 -0.7655
vn 0.2777 -0.8315 -0.4810
vn 0.0000 0.0061 -1.0000
vn 0.0000 0.2262 -0.9741
vn 0.4871 0.2255 -0.8437
vn 0.5000 0.0058 -0.8660
vn -0.4462 0.4511 -0.7729
vn 0.0000 0.4479 -0.8941
vn -0.4471 -0.4478 -0.7743
vn 0.0000 -0.4478 -0.8941
vn 0.8436 0.2262 -0.4870
vn 0.8660 0.0061 -0.5000
vn -0.8492 0.1958 -0.4903
vn -0.7743 0.4479 -0.4470
vn 0.4810 -0.8315 -0.2777
vn 0.2215 -0.9667 -0.1279
vn 0.7655 -0.4675 -0.4420
vn -0.7743 -0.4478 -0.4471
vn -0.8388 -0.2485 -0.4843
vn 0.5554 -0.8315 0.0000
vn 0.2558 -0.9667 0.0000
vn 1.0000 0.0058 0.0000
vn 0.8840 -0.4675 0.0000
vn -0.9803 0.1971 0.0000
vn -0.8925 0.4511 0.0000
vn -0.8941 -0.4478 0.0000
vn -0.9686 -0.2485 0.0000
vn 0.9742 0.2255 0.0000
vn -0.8388 -0.2485 0.4843
vn -0.8492 0.1958 0.4903
vn -0.7743 0.4479 0.4470
vn 0.2215 -0.9667 0.1279
vn 0.7655 -0.4675 0.4420
vn 0.4810 -0.8315 0.2777
vn 0.8436 0.2262 0.4870
vn 0.8660 0.0061 0.5000
vn -0.7743 -0.4478 0.4471
vn 0.1279 -0.9667 0.2215
vn 0.4420 -0.4675 0.7655
vn 0.2777 -0.8315 0.4810
vn 0.4871 0.2255 0.8437
vn 0.5000 0.0058 0.8660
vn -0.4843 -0.2485 0.8388
vn -0.4902 0.1971 0.8490
vn -0.4462 0.4511 0.7729
vn -0.4471 -0.4478 0.7743
vn 0.0000 0.1958 0.9806
vn 0.0000 0.4479 0.8941
vn 0.0000 -0.8315 0.5554
vn 0.0000 -0.9667 0.2558
vn 0.0000 0.0061 1.0000
vn 0.0000 -0.4675 0.8840
vn 0.0000 -0.4478 0.8941
vn 0.0000 -0.2485 0.9686
vn 0.0000 0.2262 0.9741
vn -0.2777 -0.8315 0.4810
vn -0.1279 -0.9667 0.2215
vn -0.5000 0.0058 0.8660
vn -0.4420 -0.4675 0.7655
vn 0.4902 0.1971 0.8490
vn 0.4462 0.4511 0.7729
vn 0.4471 -0.4478 0.7743
vn 0.4843 -0.2485 0.8388
vn -0.4871 0.2255 0.8437
vn 0.8388 -0.2485 0.4843
vn 0.8492 0.1958 0.4903
vn -0.2215 -0.9667 0.1279
vn -0.7655 -0.4675 0.4420
vn -0.4810 -0.8315 0.2777
vn -0.8436 0.2262 0.4870
vn -0.8660 0.0061 0.5000
vn 0.7743 0.4479 0.4470
vn 0.7743 -0.4478 0.4471
vn -0.8840 -0.4675 0.0000
vn -0.5554 -0.8315 0.0000
vn -0.9742 0.2255 0.0000
vn -1.0000 0.0058 0.0000
vn 0.9686 -0.2485 0.0000
vn 0.9803 0.1971 0.0000
vn -0.2558 -0.9667 0.0000
vn 0.8925 0.4511 0.0000
vn 0.8941 -0.4478 0.0000
vn -0.4810 -0.8315 -0.2777
vn -0.2215 -0.9667 -0.1279
vn -0.8660 0.0061 -0.5000
vn -0.7655 -0.4675 -0.4420
vn 0.8492 0.1958 -0.4903
vn 0.7743 0.4479 -0.4470
vn 0.7743 -0.4478 -0.4471
vn 0.8388 -0.2485 -0.4843
vn -0.8436 0.2262 -0.4870
vn -0.5000 0.0058 -0.8660
vn -0.4420 -0.4675 -0.7655
vn 0.4471 -0.4478 -0.7743
vn 0.4843 -0.2485 -0.8388
vn 0.4902 0.1971 -0.8490
vn -0.1279 -0.9667 -0.2215
vn -0.2777 -0.8315 -0.4810
vn -0.4871 0.2255 -0.8437
vn 0.4462 0.4511 -0.7729
vn 0.0000 0.5298 -0.8481
vn 0.0000 1.0000 0.0000
vn 0.4241 0.5298 -0.7345
vn 0.0000 0.3246 -0.9458
vn 0.4729 0.3246 -0.8191
vn 0.0000 0.2718 -0.9623
vn 0.4812 0.2718 -0.8334
vn 0.7345 0.5298 -0.4241
vn 0.8191 0.3246 -0.4729
vn 0.8334 0.2718 -0.4812
vn 0.9458 0.3246 0.0000
vn 0.9623 0.2718 0.0000
vn 0.8481 0.5298 0.0000
vn 0.8191 0.3246 0.4729
vn 0.8334 0.2718 0.4812
vn 0.7345 0.5298 0.4241
vn 0.4241 0.5298 0.7345
vn 0.4729 0.3246 0.8191
vn 0.4812 0.2718 0.8334
vn 0.0000 0.5298 0.8481
vn 0.0000 0.3246 0.9458
vn 0.0000 0.2718 0.9623
vn -0.4729 0.3246 0.8191
vn -0.4812 0.2718 0.8334
vn -0.4241 0.5298 0.7345
vn -0.7345 0.5298 0.4241
vn -0.8191 0.3246 0.4729
vn -0.8334 0.2718 0.4812
vn -0.8481 0.5298 0.0000
vn -0.9458 0.3246 0.0000
vn -0.9623 0.2718 0.0000
vn -0.8191 0.3246 -0.4729
vn -0.8334 0.2718 -0.4812
vn -0.7345 0.5298 -0.4241
vn -0.4729 0.3246 -0.8191
vn -0.4812 0.2718 -0.8334
vn -0.4241 0.5298 -0.7345
usemtl None
s 1
f 143/1/1 142/2/2 146/3/3 84/4/4
f 76/5/5 4/6/6 11/7/7
f 3/8/8 2/9/9 9/10/10 10/11/11
f 86/12/12 85/13/13 7/14/14 8/15/15
f 142/2/2 141/16/16 145/17/17 146/3/3
f 4/6/6 3/8/8 10/11/11 11/7/7
f 2/9/9 86/12/12 8/15/15 9/10/10
f 144/18/18 143/1/1 84/4/4 78/19/19
f 8/15/15 7/14/14 15/20/20 16/21/21
f 138/22/22 137/23/23 141/16/16 142/2/2
f 11/7/7 10/11/11 18/24/24 19/25/25
f 9/10/10 8/15/15 16/21/21 17/26/26
f 140/27/27 139/28/28 143/1/1 144/18/18
f 139/28/28 138/22/22 142/2/2 143/1/1
f 76/5/5 11/7/7 19/25/25
f 10/11/11 9/10/10 17/26/26 18/24/24
f 19/25/25 18/24/24 25/29/29 26/30/30
f 17/26/26 16/21/21 23/31/31 24/32/32
f 134/33/33 133/34/34 137/23/23 138/22/22
f 136/35/35 135/36/36 139/28/28 140/27/27
f 76/5/5 19/25/25 26/30/30
f 18/24/24 17/26/26 24/32/32 25/29/29
f 16/21/21 15/20/20 22/37/37 23/31/31
f 135/36/36 134/33/33 138/22/22 139/28/28
f 131/38/38 130/39/39 134/33/33 135/36/36
f 130/39/39 129/40/40 133/34/34 134/33/33
f 76/41/5 26/42/30 33/43/41
f 25/44/29 24/45/32 31/46/42 32/47/43
f 23/31/31 22/37/37 29/48/44 30/49/45
f 132/50/46 131/38/38 135/36/36 136/35/35
f 26/42/30 25/44/29 32/47/43 33/43/41
f 24/45/32 23/31/31 30/49/45 31/46/42
f 76/41/5 33/43/41 40/51/47
f 32/47/43 31/46/42 38/52/48 39/53/49
f 30/49/45 29/48/44 36/54/50 37/55/51
f 127/56/52 126/57/53 130/39/39 131/38/38
f 33/43/41 32/47/43 39/53/49 40/51/47
f 31/46/42 30/49/45 37/55/51 38/52/48
f 126/57/53 125/58/54 129/40/40 130/39/39
f 128/59/55 127/56/52 131/38/38 132/50/46
f 5/60/56 6/61/57 125/58/54 126/57/53
f 40/51/47 39/53/49 46/62/58 47/63/59
f 38/52/48 37/55/51 44/64/60 45/65/61
f 124/66/62 1/67/63 127/56/52 128/59/55
f 1/67/63 5/60/56 126/57/53 127/56/52
f 76/41/5 40/51/47 47/63/59
f 39/53/49 38/52/48 45/65/61 46/62/58
f 37/55/51 36/54/50 43/68/64 44/64/60
f 47/69/59 46/70/58 53/71/65 54/72/66
f 45/73/61 44/64/60 51/74/67 52/75/68
f 14/76/69 20/77/70 6/61/57 5/60/56
f 12/78/71 13/79/72 1/67/63 124/66/62
f 76/80/5 47/69/59 54/72/66
f 46/70/58 45/73/61 52/75/68 53/71/65
f 44/64/60 43/68/64 50/81/73 51/74/67
f 13/79/72 14/76/69 5/60/56 1/67/63
f 27/82/74 28/83/75 14/76/69 13/79/72
f 76/80/5 54/72/66 61/84/76
f 53/71/65 52/75/68 59/85/77 60/86/78
f 51/74/67 50/81/73 57/87/79 58/88/80
f 28/83/75 34/89/81 20/77/70 14/76/69
f 54/72/66 53/71/65 60/86/78 61/84/76
f 52/75/68 51/74/67 58/88/80 59/85/77
f 21/90/82 27/82/74 13/79/72 12/78/71
f 60/86/78 59/85/77 66/91/83 67/92/84
f 58/88/80 57/87/79 64/93/85 65/94/86
f 41/95/87 42/96/88 28/83/75 27/82/74
f 61/84/76 60/86/78 67/92/84 68/97/89
f 59/85/77 58/88/80 65/94/86 66/91/83
f 42/96/88 48/98/90 34/89/81 28/83/75
f 35/99/91 41/95/87 27/82/74 21/90/82
f 76/80/5 61/84/76 68/97/89
f 68/100/89 67/101/84 74/102/92 75/103/93
f 66/104/83 65/94/86 72/105/94 73/106/95
f 56/107/96 62/108/97 48/98/90 42/96/88
f 49/109/98 55/110/99 41/95/87 35/99/91
f 76/111/5 68/100/89 75/103/93
f 67/101/84 66/104/83 73/106/95 74/102/92
f 65/94/86 64/93/85 71/112/100 72/105/94
f 55/110/99 56/107/96 42/96/88 41/95/87
f 73/106/95 72/105/94 80/113/101 81/114/102
f 63/115/103 69/116/104 55/110/99 49/109/98
f 69/116/104 70/117/105 56/107/96 55/110/99
f 76/111/5 75/103/93 83/118/106
f 74/102/92 73/106/95 81/114/102 82/119/107
f 72/105/94 71/112/100 79/120/108 80/113/101
f 70/117/105 77/121/109 62/108/97 56/107/96
f 75/103/93 74/102/92 82/119/107 83/118/106
f 76/111/5 83/118/106 4/122/6
f 82/119/107 81/114/102 2/123/9 3/124/8
f 80/113/101 79/120/108 85/125/13 86/126/12
f 84/127/4 146/128/3 70/117/105 69/116/104
f 83/118/106 82/119/107 3/124/8 4/122/6
f 81/114/102 80/113/101 86/126/12 2/123/9
f 146/128/3 145/129/17 77/121/109 70/117/105
f 78/130/19 84/127/4 69/116/104 63/115/103
f 122/131/110 91/132/111 88/133/112
f 87/134/113 122/131/110 88/133/112 89/135/114
f 123/136/115 87/134/113 89/135/114 90/137/116
f 89/135/114 88/133/112 92/138/117 93/139/118
f 90/137/116 89/135/114 93/139/118 94/140/119
f 88/133/112 91/132/111 92/138/117
f 94/140/119 93/139/118 96/141/120 97/142/121
f 92/138/117 91/132/111 95/143/122
f 93/139/118 92/138/117 95/143/122 96/141/120
f 97/142/121 96/141/120 99/144/123 100/145/124
f 95/143/122 91/132/111 98/146/125
f 96/141/120 95/143/122 98/146/125 99/144/123
f 99/144/123 98/146/125 101/147/126 102/148/127
f 100/145/124 99/144/123 102/148/127 103/149/128
f 98/146/125 91/132/111 101/147/126
f 102/148/127 101/147/126 104/150/129 105/151/130
f 103/149/128 102/148/127 105/151/130 106/152/131
f 101/147/126 91/132/111 104/150/129
f 106/152/131 105/151/130 108/153/132 109/154/133
f 104/150/129 91/132/111 107/155/134
f 105/151/130 104/150/129 107/155/134 108/153/132
f 107/155/134 91/132/111 110/156/135
f 108/153/132 107/155/134 110/156/135 111/157/136
f 109/154/133 108/153/132 111/157/136 112/158/137
f 111/157/136 110/156/135 113/159/138 114/160/139
f 112/158/137 111/157/136 114/160/139 115/161/140
f 110/156/135 91/132/111 113/159/138
f 115/161/140 114/160/139 117/162/141 118/163/142
f 113/159/138 91/132/111 116/164/143
f 114/160/139 113/159/138 116/164/143 117/162/141
f 118/163/142 117/162/141 120/165/144 121/166/145
f 116/164/143 91/132/111 119/167/146
f 117/162/141 116/164/143 119/167/146 120/165/144
f 120/165/144 119/167/146 122/168/110 87/169/113
f 121/166/145 120/165/144 87/169/113 123/170/115
f 119/167/146 91/132/111 122/168/110
