# Blender v2.79 (sub 0) OBJ File: 'Liuskekivi.blend'
# www.blender.org
o Sphere
v 0.017766 0.368710 -0.942929
v -0.056320 -0.194063 -1.025837
v -0.069911 -0.271796 -0.746812
v -0.070262 -0.240712 -0.357790
v 0.320794 0.351654 -0.818926
v 0.362836 0.182008 -0.953187
v 0.364797 -0.035153 -0.991803
v 0.309058 -0.214628 -0.876321
v 0.209737 -0.287536 -0.632377
v 0.081082 -0.249230 -0.295858
v 0.505675 0.393402 -0.452087
v 0.634389 0.222724 -0.553100
v 0.658724 0.008918 -0.558751
v 0.580610 -0.173912 -0.476234
v 0.417575 -0.256373 -0.326164
v 0.193563 -0.232365 -0.130137
v 0.586012 0.463117 -0.036145
v 0.739354 0.313812 -0.009646
v 0.772337 0.107510 0.029480
v 0.685575 -0.082824 0.067221
v 0.497912 -0.186658 0.089779
v 0.237041 -0.194635 0.094970
v 0.517323 0.552704 0.378075
v 0.649606 0.430863 0.531559
v 0.675195 0.234206 0.615275
v 0.595828 0.034227 0.608425
v 0.429222 -0.097070 0.503998
v 0.199866 -0.146151 0.319144
v 0.318011 0.638159 0.679582
v 0.389194 0.542516 0.925497
v 0.393327 0.355057 1.041671
v 0.335415 0.145879 1.002363
v 0.229911 -0.011615 0.805506
v 0.092000 -0.099903 0.482318
v 0.041484 0.696584 0.787588
v 0.027894 0.618851 1.066614
v 0.002258 0.437682 1.194415
v -0.025885 0.222215 1.143480
v -0.046616 0.046809 0.913512
v -0.057655 -0.068284 0.540771
v -0.238164 0.712323 0.673153
v -0.337484 0.639416 0.917098
v -0.393223 0.459941 1.032579
v -0.391262 0.242780 0.993964
v -0.326264 0.062549 0.799077
v -0.209000 -0.059766 0.478839
v -0.446001 0.681161 0.366940
v -0.609036 0.598699 0.517011
v -0.687150 0.415870 0.599528
v -0.662815 0.202063 0.593877
v -0.534102 0.031386 0.492864
v -0.321480 -0.076631 0.313118
v -0.526338 0.611445 -0.049002
v -0.714002 0.507612 -0.026444
v -0.800763 0.317278 0.011297
v -0.767780 0.110976 0.050422
v -0.614439 -0.038329 0.076922
v -0.364958 -0.114361 0.088011
v -0.457648 0.521858 -0.463222
v -0.624254 0.390560 -0.567648
v -0.703621 0.190582 -0.574498
v -0.678033 -0.006076 -0.490782
v -0.545749 -0.127917 -0.337298
v -0.327784 -0.162845 -0.136163
v -0.064402 -0.157766 0.092124
v -0.281881 0.432019 -0.825892
v -0.363842 0.278908 -0.961587
v -0.421753 0.069731 -1.000894
v -0.417620 -0.117728 -0.884720
v -0.346438 -0.213372 -0.638805
v -0.219917 -0.209093 -0.299337
v -0.002541 0.202573 -1.102704
v -0.030685 -0.012894 -1.153638
v 0.214482 0.734542 0.260912
v 0.326255 0.717329 0.094748
v 0.368765 0.708508 -0.133510
v 0.330623 0.710441 -0.362700
v 0.068210 0.751973 -0.137035
v 0.222049 0.722611 -0.531411
v 0.063397 0.755533 0.320459
v 0.055972 0.726404 0.626725
v -0.086518 0.774679 0.257433
v -0.195092 0.786849 0.088722
v -0.233234 0.788783 -0.140468
v -0.190723 0.779961 -0.368726
v -0.078951 0.762749 -0.534890
v 0.072135 0.741757 -0.594437
v 0.443481 0.648482 0.235055
v 0.308057 0.691380 0.527372
v 0.453280 0.634970 -0.117903
v 0.550005 0.573968 -0.089350
v 0.482467 0.543011 -0.467254
v 0.402445 0.630515 -0.417647
v 0.323647 0.516960 -0.814266
v 0.288208 0.646949 -0.714448
v 0.046030 0.546912 -0.931118
v 0.065749 0.675359 -0.807972
v -0.334517 0.752226 0.226063
v -0.194159 0.758349 0.521567
v -0.358398 0.741195 -0.129147
v -0.477993 0.701371 -0.098181
v -0.299969 0.724680 -0.445024
v -0.407230 0.654494 -0.493851
v -0.158447 0.706509 -0.719610
v -0.232535 0.591086 -0.820681
vt 0.900124 0.625231
vt 0.958973 0.581614
vt 0.986166 0.680534
vt 0.918724 0.697482
vt 0.965717 0.150600
vt 0.934492 0.216557
vt 0.822670 0.176663
vt 0.843814 0.119314
vt 0.823064 0.682346
vt 0.833165 0.721364
vt 0.970671 0.077544
vt 0.847289 0.054690
vt 0.886748 0.275044
vt 0.790852 0.232721
vt 0.732663 0.749349
vt 0.888121 0.783778
vt 0.816323 0.767838
vt 0.702594 0.098799
vt 0.701158 0.036457
vt 0.664804 0.221327
vt 0.690495 0.158079
vt 0.946335 0.799509
vt 0.536552 0.213509
vt 0.536403 0.152659
vt 0.777071 0.809265
vt 0.848208 0.905242
vt 0.815244 0.860768
vt 0.536071 0.092708
vt 0.535274 0.032687
vt 0.726018 0.834769
vt 0.718504 0.968373
vt 0.720385 0.908100
vt 0.385683 0.158415
vt 0.372447 0.102035
vt 0.369940 0.040894
vt 0.408245 0.221907
vt 0.628919 0.912279
vt 0.676655 0.837366
vt 0.245878 0.132188
vt 0.227931 0.073488
vt 0.306515 0.227193
vt 0.271643 0.176504
vt 0.593087 0.971875
vt 0.565202 0.873467
vt 0.642262 0.816352
vt 0.168439 0.185131
vt 0.120826 0.138425
vt 0.245406 0.260722
vt 0.201746 0.217818
vt 0.506353 0.917085
vt 0.273525 0.285550
vt 0.245685 0.345523
vt 0.213009 0.322299
vt 0.632161 0.777334
vt 0.479160 0.818164
vt 0.546603 0.801217
vt 0.161753 0.288404
vt 0.117014 0.263497
vt 0.267678 0.428342
vt 0.321147 0.427373
vt 0.357320 0.474454
vt 0.332219 0.498350
vt 0.058050 0.246696
vt 0.518991 0.699189
vt 0.577205 0.714921
vt 0.145742 0.402585
vt 0.089265 0.390397
vt 0.209510 0.424037
vt 0.649003 0.730861
vt 0.028237 0.389036
vt 0.405376 0.503958
vt 0.401999 0.538694
vt 0.650083 0.637931
vt 0.688255 0.689434
vt 0.082934 0.553661
vt 0.023149 0.553964
vt 0.203241 0.552043
vt 0.142642 0.552930
vt 0.451240 0.510646
vt 0.471583 0.551648
vt 0.617119 0.593456
vt 0.484673 0.495453
vt 0.518569 0.529816
vt 0.091993 0.719238
vt 0.029969 0.718944
vt 0.213184 0.679503
vt 0.150732 0.706150
vt 0.500327 0.462159
vt 0.540747 0.483282
vt 0.739308 0.663929
vt 0.746823 0.530326
vt 0.744941 0.590598
vt 0.493980 0.415687
vt 0.523494 0.411688
vt 0.788671 0.661333
vt 0.872239 0.526824
vt 0.836407 0.586420
vt 0.171540 0.837203
vt 0.114926 0.859237
vt 0.464233 0.366980
vt 0.483982 0.344673
vt 0.050770 0.863860
vt 0.226688 0.804600
vt 0.333035 0.256565
vt 0.415560 0.278063
vt 0.416398 0.330882
vt 0.365253 0.320934
vt 0.213158 0.947586
vt 0.148194 0.979774
vt 0.519290 0.285998
vt 0.502661 0.318636
vt 0.075711 0.986017
vt 0.270418 0.899125
vt 0.483865 0.589027
vt 0.545824 0.558520
vt 0.578409 0.596786
vt 0.487820 0.634649
vt 0.409312 0.419464
vt 0.576772 0.496926
vt 0.623391 0.506763
vt 0.597179 0.385927
vt 0.556247 0.405456
vt 0.327131 0.338183
vt 0.310505 0.376534
vt 0.373100 0.606892
vt 0.275617 0.532843
vt 0.304084 0.518581
vt 0.393923 0.572468
vn -0.1293 -0.9819 -0.1382
vn -0.0966 -0.7781 -0.6207
vn 0.4007 -0.7881 -0.4672
vn 0.1086 -0.9910 -0.0785
vn -0.0138 -0.1884 -0.9820
vn 0.0687 0.4377 -0.8965
vn 0.5818 0.3816 -0.7182
vn 0.5997 -0.2298 -0.7665
vn -0.1326 -0.9841 0.1178
vn -0.0774 -0.9883 0.1315
vn 0.0674 0.4478 -0.8916
vn 0.6189 0.3977 -0.6774
vn -0.1319 -0.9731 0.1886
vn 0.2491 -0.9676 0.0418
vn -0.0450 -0.9862 0.1591
vn 0.9099 -0.1944 -0.3664
vn 0.6713 -0.7186 -0.1818
vn 0.8422 0.4169 -0.3418
vn 0.8368 0.3806 -0.3935
vn 0.8508 0.5164 -0.0972
vn 0.8984 0.4287 -0.0949
vn -0.0351 -0.9814 0.1888
vn 0.7523 -0.6488 0.1139
vn 0.2940 -0.9394 0.1761
vn 0.9911 -0.1321 0.0114
vn -0.0442 -0.9748 0.2185
vn 0.6797 -0.6037 0.4165
vn 0.2529 -0.9156 0.3125
vn 0.8318 0.5181 0.1991
vn 0.9205 -0.0497 0.3875
vn 0.6630 0.7435 0.0871
vn 0.1158 -0.8921 0.4367
vn -0.0758 -0.9663 0.2457
vn 0.6214 0.0670 0.7806
vn 0.4173 -0.5613 0.7147
vn 0.4332 0.8740 0.2202
vn 0.5825 0.6570 0.4786
vn -0.1204 -0.8604 0.4952
vn -0.1306 -0.9572 0.2584
vn 0.0138 0.1884 0.9820
vn -0.0757 -0.4926 0.8669
vn 0.1233 0.9573 0.2612
vn 0.0966 0.7781 0.6207
vn 0.1315 0.9731 0.1891
vn -0.1410 0.9781 0.1532
vn -0.1907 0.9605 0.2026
vn -0.1856 -0.9517 0.2445
vn -0.5659 -0.4302 0.7033
vn -0.3554 -0.8293 0.4312
vn -0.4007 0.7881 0.4672
vn -0.5997 0.2298 0.7665
vn -0.2952 0.9531 0.0667
vn -0.0690 0.9975 0.0157
vn -0.1336 0.9904 -0.0356
vn -0.3768 0.9243 -0.0605
vn -0.8234 -0.4033 0.3992
vn -0.4910 -0.8164 0.3039
vn -0.6713 0.7186 0.1818
vn -0.9099 0.1944 0.3664
vn -0.4328 0.8987 0.0708
vn -0.2177 -0.9517 0.2165
vn -0.1297 0.9864 -0.1002
vn -0.3895 0.8939 -0.2216
vn -0.5338 -0.8290 0.1666
vn -0.2275 -0.9557 0.1866
vn -0.9911 0.1321 -0.0114
vn -0.8984 -0.4287 0.0949
vn -0.7131 0.6927 -0.1076
vn -0.7523 0.6488 -0.1139
vn -0.0314 0.9863 -0.1618
vn -0.2491 0.8651 -0.4353
vn 0.1318 0.9720 -0.1941
vn 0.1184 0.8154 -0.5666
vn -0.9205 0.0497 -0.3875
vn -0.8318 -0.5181 -0.1991
vn -0.7128 0.5997 -0.3635
vn -0.6987 0.5853 -0.4112
vn 0.3123 0.9366 -0.1590
vn 0.5031 0.7561 -0.4186
vn -0.2186 -0.9631 0.1571
vn -0.4948 -0.8683 0.0332
vn 0.4271 0.8985 -0.1014
vn 0.6436 0.7383 -0.2019
vn -0.1872 -0.9736 0.1302
vn -0.5825 -0.6570 -0.4786
vn -0.3626 -0.9281 -0.0839
vn -0.4451 0.5185 -0.7301
vn -0.6214 -0.0670 -0.7806
vn 0.4270 0.9035 -0.0374
vn 0.6307 0.7739 -0.0571
vn -0.4770 0.5425 -0.6915
vn 0.4139 0.8933 0.1752
vn 0.5536 0.8295 0.0730
vn 0.3437 0.9389 0.0182
vn 0.2246 0.9733 0.0462
vn 0.8500 0.5218 -0.0722
vn -0.5164 0.4756 -0.7121
vn 0.0628 0.3723 -0.9260
vn 0.1323 0.9911 -0.0136
vn 0.6526 0.3158 -0.6887
vn 0.8639 0.4007 -0.3050
vn 0.1313 0.9896 0.0580
vn 0.0389 0.9983 0.0440
vn -0.7146 0.6948 -0.0811
vn -0.7313 0.5883 -0.3450
s 1
f 3/1/1 2/2/2 8/3/3 9/4/4
f 73/5/5 72/6/6 6/7/7 7/8/8
f 4/9/9 3/1/1 9/4/4 10/10/10
f 2/11/2 73/5/5 7/8/8 8/12/3
f 72/6/6 1/13/11 5/14/12 6/7/7
f 65/15/13 4/9/9 10/10/10
f 10/10/10 9/4/4 15/16/14 16/17/15
f 8/12/3 7/8/8 13/18/16 14/19/17
f 6/7/7 5/14/12 11/20/18 12/21/19
f 65/15/13 10/10/10 16/17/15
f 9/4/4 8/3/3 14/22/17 15/16/14
f 7/8/8 6/7/7 12/21/19 13/18/16
f 12/21/19 11/20/18 17/23/20 18/24/21
f 65/15/13 16/17/15 22/25/22
f 15/16/14 14/22/17 20/26/23 21/27/24
f 13/18/16 12/21/19 18/24/21 19/28/25
f 16/17/15 15/16/14 21/27/24 22/25/22
f 14/19/17 13/18/16 19/28/25 20/29/23
f 65/15/13 22/25/22 28/30/26
f 21/27/24 20/26/23 26/31/27 27/32/28
f 19/28/25 18/24/21 24/33/29 25/34/30
f 22/25/22 21/27/24 27/32/28 28/30/26
f 20/29/23 19/28/25 25/34/30 26/35/27
f 18/24/21 17/23/20 23/36/31 24/33/29
f 28/30/26 27/32/28 33/37/32 34/38/33
f 26/35/27 25/34/30 31/39/34 32/40/35
f 24/33/29 23/36/31 29/41/36 30/42/37
f 65/15/13 28/30/26 34/38/33
f 27/32/28 26/31/27 32/43/35 33/37/32
f 25/34/30 24/33/29 30/42/37 31/39/34
f 34/38/33 33/37/32 39/44/38 40/45/39
f 32/40/35 31/39/34 37/46/40 38/47/41
f 30/42/37 29/41/36 35/48/42 36/49/43
f 65/15/13 34/38/33 40/45/39
f 33/37/32 32/43/35 38/50/41 39/44/38
f 31/39/34 30/42/37 36/49/43 37/46/40
f 35/48/42 81/51/44 99/52/45 41/53/46
f 65/15/13 40/45/39 46/54/47
f 39/44/38 38/50/41 44/55/48 45/56/49
f 37/46/40 36/49/43 42/57/50 43/58/51
f 98/59/52 83/60/53 84/61/54 100/62/55
f 40/45/39 39/44/38 45/56/49 46/54/47
f 38/47/41 37/46/40 43/58/51 44/63/48
f 36/49/43 35/48/42 41/53/46 42/57/50
f 45/56/49 44/55/48 50/64/56 51/65/57
f 43/58/51 42/57/50 48/66/58 49/67/59
f 41/53/46 99/52/45 47/68/60
f 46/54/47 45/56/49 51/65/57 52/69/61
f 44/63/48 43/58/51 49/67/59 50/70/56
f 42/57/50 41/53/46 47/68/60 48/66/58
f 100/62/55 84/61/54 85/71/62 102/72/63
f 65/15/13 46/54/47 52/69/61
f 52/69/61 51/65/57 57/73/64 58/74/65
f 50/70/56 49/67/59 55/75/66 56/76/67
f 48/66/58 47/68/60 53/77/68 54/78/69
f 102/72/63 85/71/62 86/79/70 104/80/71
f 65/15/13 52/69/61 58/74/65
f 51/65/57 50/64/56 56/81/67 57/73/64
f 49/67/59 48/66/58 54/78/69 55/75/66
f 104/80/71 86/79/70 87/82/72 97/83/73
f 56/76/67 55/75/66 61/84/74 62/85/75
f 54/78/69 53/77/68 59/86/76 60/87/77
f 97/83/73 87/82/72 79/88/78 95/89/79
f 65/15/13 58/74/65 64/90/80
f 57/73/64 56/81/67 62/91/75 63/92/81
f 55/75/66 54/78/69 60/87/77 61/84/74
f 95/89/79 79/88/78 77/93/82 93/94/83
f 58/74/65 57/73/64 63/92/81 64/90/80
f 65/15/13 64/90/80 71/95/84
f 63/92/81 62/91/75 69/96/85 70/97/86
f 61/84/74 60/87/77 67/98/87 68/99/88
f 93/94/83 77/93/82 76/100/89 90/101/90
f 64/90/80 63/92/81 70/97/86 71/95/84
f 62/85/75 61/84/74 68/99/88 69/102/85
f 60/87/77 59/86/76 66/103/91 67/98/87
f 89/104/92 88/105/93 75/106/94 74/107/95
f 68/99/88 67/98/87 72/108/6 73/109/5
f 17/110/20 91/111/96 23/36/31
f 71/95/84 70/97/86 3/1/1 4/9/9
f 69/102/85 68/99/88 73/109/5 2/112/2
f 67/98/87 66/103/91 1/113/11 72/108/6
f 35/48/42 29/41/36 89/104/92 81/51/44
f 65/15/13 71/95/84 4/9/9
f 70/97/86 69/96/85 2/2/2 3/1/1
f 105/114/97 96/115/98 1/116/11 66/117/91
f 87/82/72 78/118/99 79/88/78
f 79/88/78 78/118/99 77/93/82
f 1/116/11 96/115/98 94/119/100 5/120/12
f 77/93/82 78/118/99 76/100/89
f 11/121/18 5/120/12 94/119/100 92/122/101
f 17/110/20 11/121/18 92/122/101 91/111/96
f 76/100/89 78/118/99 75/106/94
f 90/101/90 76/100/89 75/106/94 88/105/93
f 75/106/94 78/118/99 74/107/95
f 74/107/95 78/118/99 80/123/102
f 89/104/92 74/107/95 80/123/102 81/51/44
f 80/123/102 78/118/99 82/124/103
f 81/51/44 80/123/102 82/124/103 99/52/45
f 59/125/76 53/126/68 101/127/104 103/128/105
f 82/124/103 78/118/99 83/60/53
f 83/60/53 78/118/99 84/61/54
f 99/52/45 82/124/103 83/60/53 98/59/52
f 84/61/54 78/118/99 85/71/62
f 59/125/76 103/128/105 105/114/97 66/117/91
f 85/71/62 78/118/99 86/79/70
f 53/126/68 47/68/60 101/127/104
f 86/79/70 78/118/99 87/82/72
f 23/36/31 88/105/93 89/104/92
f 98/59/52 47/68/60 99/52/45
f 93/94/83 90/101/90 91/111/96 92/122/101
f 95/89/79 93/94/83 92/122/101 94/119/100
f 94/119/100 96/115/98 97/83/73 95/89/79
f 23/36/31 91/111/96 90/101/90 88/105/93
f 98/59/52 100/62/55 101/127/104 47/68/60
f 100/62/55 102/72/63 103/128/105 101/127/104
f 105/114/97 103/128/105 102/72/63 104/80/71
f 96/115/98 105/114/97 104/80/71 97/83/73
f 23/36/31 89/104/92 29/41/36
